# xmcd
#
# Track frame offsets: 
#        150
#        10920
#        23632
#        33645
#        45582
#        58045
#        69145
#        80645
#        92007
#        105532
#        116882
#        128395
#        140682
#        151632
#        163795
#        175607
#        186307
#        197970
#        207445
#        217782
#        231145
#        240357
#        251832
#        261920
#        273995
#        290807
#        303157
#        314795
#
# Disc length: 4328 seconds
#
# Revision: 0
# Processed by: cddbd v1.5.2PL0 Copyright (c) Steve Scherf et al.
# Submitted via: ExactAudioCopy v0.99pb4
#
DISCID=8d10e61c
DTITLE=Lee Rogers - Sock Some Love Power To Me - Rare Detroit Soul 196
DTITLE=3-1970
DYEAR=1970
DGENRE=Soul
TTITLE0=While The Cat's Away
TTITLE1=Troubles
TTITLE2=Walk On By
TTITLE3=Sad Affair
TTITLE4=Doggin' Myself Around
TTITLE5=I Want You To Have Everything
TTITLE6=Boss Love
TTITLE7=Our Love Is More
TTITLE8=You're The Cream Of The Crop
TTITLE9=Just You And I
TTITLE10=Somebody Else Will
TTITLE11=My One And Only
TTITLE12=You Won't Have To Wait Till X-Mas
TTITLE13=Go-Go Girl
TTITLE14=I'm A Practical Guy
TTITLE15=How Are Ya Fixed For Love
TTITLE16=Love and War
TTITLE17=Cracked Up Over You
TTITLE18=The Same Things That Make You Laugh
TTITLE19=Love For A Love
TTITLE20=Sweet Baby Talk
TTITLE21=Love Can Really Hurt You Deeply
TTITLE22=Sock Some Love Power To Me
TTITLE23=Jack The Playboy
TTITLE24=I Need Your Love
TTITLE25=If I Could Steal You Away
TTITLE26=Sex Appeal
TTITLE27=Love Bandit
EXTD=
EXTT0=
EXTT1=
EXTT2=
EXTT3=
EXTT4=
EXTT5=
EXTT6=
EXTT7=
EXTT8=
EXTT9=
EXTT10=
EXTT11=
EXTT12=
EXTT13=
EXTT14=
EXTT15=
EXTT16=
EXTT17=
EXTT18=
EXTT19=
EXTT20=
EXTT21=
EXTT22=
EXTT23=
EXTT24=
EXTT25=
EXTT26=
EXTT27=
PLAYORDER=
